<svg xmlns="http://www.w3.org/2000/svg" viewBox="0 0 200 200">
  <path fill="#0065AB" d="M31.4 161h-1C12.4 155.9 0 139 0 119.7c0-18.3 11-34.1 27.6-40 1-14.8 7.2-29 17.6-39.3C56.2 29 71 22.8 86.6 22.8c22.4 0 42.8 13.1 53.1 33.8h9.3c28.3-.3 51 23.4 51 52.8 0 20.7-11.7 39.7-30 48.3-2.1 1-4.5 0-5.5-2.1s0-4.5 2.1-5.5c15.2-7.2 25.2-23.1 25.2-40.7 0-24.5-19.3-44.5-42.8-44.5h-5.5c-1.7 0-3.8 0-5.9.3l-3.1.3-1.4-3.1C124.8 43.1 106.6 31 86.6 31 73.1 31 60.7 36.6 51 46.2S35.9 69 35.9 82.8v3.1l-3.1.7c-14.5 4.1-24.5 17.9-24.5 33.1 0 15.5 10 29 24.1 32.8 2.1.7 3.4 3.1 2.8 5.2-.4 2-1.8 3.3-3.8 3.3"/>
  <path fill="#DFA100" d="M154.8 108.6c.3-.7.3-1.7 0-2.4v-2.1L100.7 72l-53.8 32.1v63.8l53.8 32.1 1-.7c.7 0 1.4-.3 1.7-1l51-30.3v-59.3h.4zm-11.4-1.4l-41.7 23.1-42.4-23.8L101 81.7l42.4 25.5zm-88.2 6.2L99 137.9v51.4l-43.8-26.2v-49.7zm48.9 74.9V138l42.4-23.4v48.6c.1-.1-42.4 25.1-42.4 25.1z"/>
</svg>