<?xml version="1.0" encoding="UTF-8"?>
<svg width="1294px" height="283px" viewBox="0 0 1294 283" version="1.1" xmlns="http://www.w3.org/2000/svg" xmlns:xlink="http://www.w3.org/1999/xlink">
    <!-- Generator: Sketch 49.3 (51167) - http://www.bohemiancoding.com/sketch -->
    <title>Group 82</title>
    <desc>Created with Sketch.</desc>
    <defs></defs>
    <g id="Page-1" stroke="none" stroke-width="1" fill="none" fill-rule="evenodd">
        <g id="Group-82">
            <g id="Group-80">
                <g id="if_weather_29_2682822" transform="translate(0.000000, 34.000000)" fill-rule="nonzero">
                    <path d="M249,0 C111.543269,0.1499802 0.1499802,111.543269 0,249 L47.4052459,249 C47.6447255,137.881874 137.664169,47.8624304 248.782295,47.6229508" id="Shape" fill="#F7563C"></path>
                    <path d="M249,47 C137.538135,47.2402204 47.2402204,137.538135 47,249 L94.5518919,249 C94.7320713,163.77541 163.77541,94.7320713 249,94.5518919" id="Shape" fill="#EFCC00"></path>
                    <path d="M249,95 C163.972998,95.0599626 95.0599626,163.972998 95,249 L142.346982,249 C142.406953,190.130822 190.130799,142.4313 249,142.401341" id="Shape" fill="#42BC59"></path>
                    <path d="M249,143 C190.482517,143.05959 143.05959,190.482517 143,249 L190.189189,249 C190.21899,216.532038 216.532038,190.21899 249,190.189189" id="Shape" fill="#0D98FF"></path>
                </g>
                <path d="M319.857422,142.669922 L319.857422,206.121094 L347.994141,206.121094 C361.488349,206.121094 370.938938,203.824242 376.346191,199.230469 C381.753445,194.636696 384.457031,186.645565 384.457031,175.256836 C384.457031,163.6767 381.633817,155.350611 375.987305,150.27832 C370.340792,145.206029 361.009831,142.669922 347.994141,142.669922 L319.857422,142.669922 Z M319.857422,59.1210938 L319.857422,108.93457 L347.994141,108.93457 C358.712944,108.93457 366.345192,107.020527 370.891113,103.192383 C375.437034,99.3642387 377.709961,93.0478956 377.709961,84.2431641 C377.709961,75.4384325 375.389183,69.0503128 370.747559,65.0786133 C366.105934,61.1069137 358.521537,59.1210938 347.994141,59.1210938 L319.857422,59.1210938 Z M278.944336,25.3857422 L347.994141,25.3857422 C371.824338,25.3857422 389.744569,29.9076696 401.755371,38.9516602 C413.766173,47.9956507 419.771484,61.5135819 419.771484,79.5058594 C419.771484,93.2871783 416.230504,104.053672 409.148438,111.805664 C402.066371,119.557656 391.682686,124.055658 377.99707,125.299805 C394.362387,126.926766 406.684041,132.429641 414.962402,141.808594 C423.240764,151.187547 427.379883,164.298744 427.379883,181.142578 C427.379883,201.814556 421.159242,216.791946 408.717773,226.075195 C396.276305,235.358445 376.035296,240 347.994141,240 L278.944336,240 L278.944336,25.3857422 Z M449.998516,79.21875 L533.260235,79.21875 L533.260235,207.700195 L585.514141,207.700195 L585.514141,240 L438.80125,240 L438.80125,207.700195 L491.198711,207.700195 L491.198711,111.518555 L449.998516,111.518555 L449.998516,79.21875 Z M487.198711,0.981445312 L529.260235,0.981445312 L529.260235,50.0771484 L487.198711,50.0771484 L487.198711,0.981445312 Z M659.632774,65.1503906 L659.632774,79.21875 L709.015587,79.21875 L709.015587,111.518555 L659.632774,111.518555 L659.632774,240 L617.571251,240 L617.571251,111.518555 L578.524376,111.518555 L578.524376,79.21875 L617.571251,79.21875 L617.571251,68.0214844 C617.571251,48.6893565 621.590742,35.2910529 629.629845,27.8261719 C637.668947,20.3612908 652.598486,16.6289062 674.418907,16.6289062 L709.015587,16.6289062 L709.015587,48.9287109 L676.141563,48.9287109 C669.825126,48.9287109 665.542454,50.077137 663.293419,52.3740234 C661.044384,54.6709099 659.824182,58.9296564 659.632774,65.1503906 Z M853.050236,123.577148 C848.456463,119.36619 843.073216,116.208018 836.900333,114.102539 C830.727451,111.99706 823.956523,110.944336 816.587345,110.944336 C807.68691,110.944336 799.911109,112.499496 793.259708,115.609863 C786.608308,118.72023 781.464316,123.242158 777.827579,129.175781 C775.530693,132.812518 773.927682,137.214818 773.018497,142.382812 C772.109313,147.550807 771.654728,155.398385 771.654728,165.925781 L771.654728,240 L729.593204,240 L729.593204,79.21875 L771.654728,79.21875 L771.654728,104.197266 C775.769983,95.0097197 782.086326,87.9038337 790.603947,82.8793945 C799.121567,77.8549553 809.074593,75.3427734 820.463322,75.3427734 C826.205538,75.3427734 831.82804,76.0366142 837.330997,77.4243164 C842.833955,78.8120187 848.073648,80.8456897 853.050236,83.5253906 L853.050236,123.577148 Z M946.005783,15.7675781 L979.884689,15.7675781 L979.884689,51.0820312 L946.005783,51.0820312 L946.005783,15.7675781 Z M889.301682,15.7675781 L923.180588,15.7675781 L923.180588,51.0820312 L889.301682,51.0820312 L889.301682,15.7675781 Z M934.521408,109.508789 C924.47253,109.508789 916.577101,113.935014 910.834885,122.787598 C905.092668,131.640181 902.221603,143.961835 902.221603,159.75293 C902.221603,175.544024 905.092668,187.865678 910.834885,196.718262 C916.577101,205.570845 924.47253,209.99707 934.521408,209.99707 C944.66599,209.99707 952.60927,205.570845 958.351486,196.718262 C964.093702,187.865678 966.964767,175.544024 966.964767,159.75293 C966.964767,143.961835 964.093702,131.640181 958.351486,122.787598 C952.60927,113.935014 944.66599,109.508789 934.521408,109.508789 Z M860.16008,159.75293 C860.16008,133.817253 866.883157,113.265213 880.329514,98.0961914 C893.77587,82.9271702 911.839654,75.3427734 934.521408,75.3427734 C957.298866,75.3427734 975.410501,82.9271702 988.856857,98.0961914 C1002.30321,113.265213 1009.02629,133.817253 1009.02629,159.75293 C1009.02629,185.688606 1002.30321,206.240647 988.856857,221.409668 C975.410501,236.578689 957.298866,244.163086 934.521408,244.163086 C911.839654,244.163086 893.77587,236.578689 880.329514,221.409668 C866.883157,206.240647 860.16008,185.688606 860.16008,159.75293 Z M1134.62735,84.2431641 L1134.62735,120.993164 C1126.87535,116.016577 1118.81245,112.260267 1110.43838,109.724121 C1102.06432,107.187976 1093.66645,105.919922 1085.24453,105.919922 C1075.86558,105.919922 1068.78362,107.283678 1063.99844,110.01123 C1059.21326,112.738783 1056.82071,116.7822 1056.82071,122.141602 C1056.82071,129.79789 1067.06084,136.018531 1087.54141,140.803711 L1089.12051,141.234375 L1101.1791,144.105469 C1116.49168,147.742206 1127.71276,153.603963 1134.84268,161.690918 C1141.9726,169.777872 1145.5375,180.711845 1145.5375,194.493164 C1145.5375,211.049887 1140.1064,223.467244 1129.24405,231.745605 C1118.38169,240.023967 1102.04054,244.163086 1080.22012,244.163086 C1070.55406,244.163086 1060.64888,243.325692 1050.5043,241.650879 C1040.35972,239.976066 1030.07173,237.463884 1019.64004,234.114258 L1019.64004,197.364258 C1028.92329,202.627956 1038.37388,206.647447 1047.99209,209.422852 C1057.6103,212.198256 1066.91734,213.585938 1075.91348,213.585938 C1085.77095,213.585938 1093.23572,212.150405 1098.30801,209.279297 C1103.3803,206.408189 1105.91641,202.245144 1105.91641,196.790039 C1105.91641,191.430637 1104.12199,187.315444 1100.53311,184.444336 C1096.94422,181.573228 1088.4028,178.510758 1074.9086,175.256836 L1063.28067,172.672852 C1047.20246,169.036115 1035.47895,163.341836 1028.10977,155.589844 C1020.74059,147.837852 1017.05606,137.454167 1017.05606,124.438477 C1017.05606,108.934493 1022.65463,96.8760196 1033.85196,88.2626953 C1045.04928,79.649371 1060.79228,75.3427734 1081.08145,75.3427734 C1090.17329,75.3427734 1099.24107,76.0844652 1108.28506,77.5678711 C1117.32905,79.0512769 1126.10973,81.2763524 1134.62735,84.2431641 Z M1237.69032,33.5683594 L1237.69032,79.21875 L1292.67176,79.21875 L1292.67176,111.518555 L1237.69032,111.518555 L1237.69032,187.602539 C1237.69032,194.780309 1239.43688,199.924301 1242.93006,203.034668 C1246.42324,206.145035 1252.23715,207.700195 1260.37196,207.700195 L1292.67176,207.700195 L1292.67176,240 L1257.35731,240 C1233.24,240 1216.92278,236.147988 1208.40516,228.443848 C1199.88754,220.739708 1195.62879,206.456159 1195.62879,185.592773 L1195.62879,111.518555 L1154.57215,111.518555 L1154.57215,79.21875 L1195.62879,79.21875 L1195.62879,33.5683594 L1237.69032,33.5683594 Z" id="Bifröst" fill="#647C8A"></path>
                <path d="M277.475862,280.5 L1292.50049,280.5" id="Line-50" stroke="#647C8A" stroke-width="3" stroke-linecap="square"></path>
            </g>
        </g>
    </g>
</svg>